<svg width="1728" height="950" viewBox="0 0 1728 950" fill="none" xmlns="http://www.w3.org/2000/svg">
<path d="M296.886 589.18C296.727 583.293 315.502 580.429 322.503 582.179C326.036 582.646 340.005 591.567 340.324 597.931C340.642 604.295 324.412 605.409 318.366 602.068C312.32 598.727 297.045 595.067 296.886 589.18Z" fill="#1F0055"/>
<path d="M166.971 562.597C169.155 549.493 199.499 547.361 223.754 553.425C244.104 558.512 267.435 569.586 270.434 584.318C271.706 590.562 248.653 597.541 212.835 588.369C206.143 586.655 164.886 575.099 166.971 562.597Z" fill="#1F0055"/>
<path d="M-49.2174 439.829C-49.2174 377.525 22.94 420.165 68.8596 469.364C83.172 484.699 152.356 526.684 152.355 541.718C152.355 559.017 119.887 560.267 83.0731 556.83C39.6838 552.78 -49.2174 521.844 -49.2174 439.829Z" fill="#1F0055"/>
<circle cx="840.354" cy="571.489" r="378.5" fill="#170040"/>
<path d="M1231.92 422.523C1216.08 438.294 1253.33 477.578 1278.1 487.164C1302.87 496.75 1343 488.874 1352.56 469.212C1364.5 444.633 1316.43 451.008 1291.17 453.399C1265.91 455.79 1247.76 406.751 1231.92 422.523Z" fill="#1F0055"/>
<path d="M1088.3 542.488C1097.04 531.67 1071.37 509.846 1055.4 505.567C1039.43 501.288 1015.12 508.841 1010.52 521.648C1004.77 537.656 1034.1 530.502 1049.57 527.335C1065.04 524.169 1079.55 553.306 1088.3 542.488Z" fill="#1F0055"/>
<path d="M817.616 472.454C817.616 436.451 200.703 486.194 264.938 123.831C310.995 -135.992 659.607 -261.3 838.984 -280.1L899.453 -282.085C882.868 -283.191 862.364 -282.55 838.984 -280.1L351.024 -264.081C286.419 -201.842 168.905 3.38727 172.734 123.831C177.519 274.385 241.754 342.564 184.327 346.254C126.901 349.944 -27.0347 178.725 -13.4756 73.1899C-2.62836 -11.2385 -31.6245 -212.42 29.7901 -264.081H-113.699C-119.548 -199.136 -114.77 -14.7809 -79.6758 73.1899C-35.8082 183.153 29.7537 292.131 7.42108 312.058C-14.9115 331.984 -280.669 118.209 -316.561 28.9093C-345.274 -42.5301 -360.96 53.2636 -365.214 110.09L-316.561 220.054C-237.333 292.133 -40.546 392.265 118.175 451.182C270.059 507.561 817.616 534.111 817.616 472.454Z" fill="#1F0055"/>
<path d="M1164.19 534.776C1214.63 558.645 1287.14 549.783 1317.09 542.368C1322.91 543.206 1333.97 542.283 1331.66 531.889C1328.78 518.895 1198.36 500.608 1187.77 493.871C1177.19 487.134 1145.91 457.297 1096.82 434.679C979.88 392.812 912.026 436.604 914.913 444.304C917.801 452.004 1025.12 466.441 1041.48 470.291C1057.84 474.141 1101.15 504.94 1164.19 534.776Z" fill="#1F0055"/>
<path d="M447.858 154.651C460.656 97.1939 548.493 34.1554 566.974 46.6768C576.689 67.1225 506.8 139.542 500.255 167.348C489.361 213.631 502.826 291.434 475.044 288.345C447.261 285.256 437.603 200.694 447.858 154.651Z" fill="#1F0055"/>
<path d="M502.844 314.036C523.631 296.482 528.958 312.123 548.311 341.607C559.264 358.703 583.407 381.439 564.282 386.79C545.157 392.14 529.425 383.534 517.13 367.938C504.836 352.342 482.057 331.589 502.844 314.036Z" fill="#1F0055"/>
<g clip-path="url(#clip0_1023_2992)">
<path d="M1685.34 834.268C1792.76 885.108 1947.21 866.231 2011 850.437C2023.4 852.222 2046.96 850.258 2042.04 828.118C2035.89 800.443 1758.12 761.493 1735.57 747.143C1713.02 732.794 1646.39 669.244 1541.84 621.069C1257.03 569.473 1184.04 604.669 1190.19 621.069C1196.34 637.469 1389.12 688.719 1423.97 696.919C1458.82 705.119 1551.07 770.718 1685.34 834.268Z" fill="#1F0055"/>
</g>
<defs>
<clipPath id="clip0_1023_2992">
<rect width="852.868" height="318.07" fill="white" transform="translate(1189.84 549.281)"/>
</clipPath>
</defs>
</svg>
