<svg width="97" height="97" viewBox="0 0 97 97" fill="none" xmlns="http://www.w3.org/2000/svg">
<mask id="mask0_1081_142" style="mask-type:alpha" maskUnits="userSpaceOnUse" x="0" y="0" width="97" height="97">
<circle cx="48.6195" cy="48.5011" r="48" fill="#620072"/>
</mask>
<g mask="url(#mask0_1081_142)">
<circle cx="52.1195" cy="55.0011" r="57.5" fill="#740886"/>
<g filter="url(#filter0_f_1081_142)">
<path d="M54.6194 29.0009C49.0194 21.0009 36.2861 32.3343 30.6195 39.0009C26.4528 42.501 19.1195 50.601 23.1195 55.001C27.1195 59.401 36.1195 53.1676 40.1195 49.501C47.2861 46.001 60.2194 37.0009 54.6194 29.0009Z" fill="#4A0070" fill-opacity="0.7"/>
</g>
<g filter="url(#filter1_f_1081_142)">
<path d="M66.9357 46.8648C64.1378 42.8998 57.7757 48.5169 54.9445 51.8211C52.8626 53.5557 49.1986 57.5703 51.1972 59.751C53.1957 61.9318 57.6925 58.8424 59.691 57.0251C63.2717 55.2904 69.7337 50.8298 66.9357 46.8648Z" fill="#4A0070" fill-opacity="0.7"/>
</g>
<g filter="url(#filter2_f_1081_142)">
<path d="M95.9357 31.8648C93.1378 27.8998 86.7757 33.5169 83.9445 36.8211C81.8626 38.5557 78.1986 42.5703 80.1972 44.751C82.1957 46.9318 86.6925 43.8424 88.691 42.0251C92.2717 40.2904 98.7337 35.8298 95.9357 31.8648Z" fill="#4A0070" fill-opacity="0.7"/>
</g>
<g filter="url(#filter3_f_1081_142)">
<path d="M87.9357 56.8648C85.1378 52.8998 78.7757 58.5169 75.9445 61.8211C73.8626 63.5557 70.1986 67.5703 72.1972 69.751C74.1957 71.9318 78.6925 68.8424 80.691 67.0251C84.2717 65.2904 90.7337 60.8298 87.9357 56.8648Z" fill="#4A0070" fill-opacity="0.7"/>
</g>
<g filter="url(#filter4_f_1081_142)">
<path d="M41.9357 75.8648C39.1378 71.8998 32.7757 77.5169 29.9445 80.8211C27.8626 82.5557 24.1986 86.5703 26.1972 88.751C28.1957 90.9318 32.6925 87.8424 34.691 86.0251C38.2717 84.2904 44.7337 79.8298 41.9357 75.8648Z" fill="#4A0070" fill-opacity="0.7"/>
</g>
<g filter="url(#filter5_f_1081_142)">
<path d="M70.9357 81.8648C68.1378 77.8998 61.7757 83.5169 58.9445 86.8211C56.8626 88.5557 53.1986 92.5703 55.1972 94.751C57.1957 96.9318 61.6925 93.8424 63.691 92.0251C67.2717 90.2904 73.7337 85.8298 70.9357 81.8648Z" fill="#4A0070" fill-opacity="0.7"/>
</g>
<g filter="url(#filter6_f_1081_142)">
<path d="M24.9357 25.8648C22.1378 21.8998 15.7757 27.5169 12.9445 30.8211C10.8626 32.5557 7.19864 36.5703 9.19718 38.751C11.1957 40.9318 15.6925 37.8424 17.691 36.0251C21.2717 34.2904 27.7337 29.8298 24.9357 25.8648Z" fill="#4A0070" fill-opacity="0.7"/>
</g>
<g filter="url(#filter7_f_1081_142)">
<path d="M18.9357 58.8648C16.1378 54.8998 9.77573 60.5169 6.94446 63.8211C4.86264 65.5557 1.19864 69.5703 3.19718 71.751C5.19573 73.9318 9.69246 70.8424 11.691 69.0251C15.2717 67.2904 21.7337 62.8298 18.9357 58.8648Z" fill="#4A0070" fill-opacity="0.7"/>
</g>
<g filter="url(#filter8_f_1081_142)">
<path d="M36.9357 -3.13517C34.1378 -7.10015 27.7757 -1.48309 24.9445 1.82106C22.8626 3.55575 19.1986 7.5703 21.1972 9.75104C23.1957 11.9318 27.6925 8.8424 29.691 7.02512C33.2717 5.29043 39.7337 0.829817 36.9357 -3.13517Z" fill="#4A0070" fill-opacity="0.7"/>
</g>
<g filter="url(#filter9_f_1081_142)">
<path d="M76.9357 11.8648C74.1378 7.89985 67.7757 13.5169 64.9445 16.8211C62.8626 18.5557 59.1986 22.5703 61.1972 24.751C63.1957 26.9318 67.6925 23.8424 69.691 22.0251C73.2717 20.2904 79.7337 15.8298 76.9357 11.8648Z" fill="#4A0070" fill-opacity="0.7"/>
</g>
<path d="M29.2148 100.057C26.4168 96.0925 20.0548 101.71 17.2235 105.014C15.1417 106.748 11.4777 110.763 13.4762 112.944C15.4748 115.124 19.9715 112.035 21.9701 110.218C25.5508 108.483 32.0127 104.022 29.2148 100.057Z" fill="#4A0070" fill-opacity="0.7"/>
<g filter="url(#filter11_f_1081_142)">
<path d="M10.2148 80.0575C7.41682 76.0925 1.05478 81.7095 -1.77649 85.0137C-3.85831 86.7484 -7.52231 90.7629 -5.52376 92.9437C-3.52522 95.1244 0.971511 92.035 2.97006 90.2177C6.55078 88.4831 13.0127 84.0224 10.2148 80.0575Z" fill="#4A0070" fill-opacity="0.7"/>
</g>
<g filter="url(#filter12_f_1081_142)">
<path d="M91.0496 36.3443C83.8554 10.1125 57.9901 0.59462 45.9567 -0.885376C59.0545 -2.24035 87.2322 -0.557139 95.5835 35.8753C102.265 65.0212 83.0812 84.0019 72.6544 89.8491C81.7837 82.944 98.2439 62.576 91.0496 36.3443Z" fill="#FF48FD"/>
</g>
</g>
<defs>
<filter id="filter0_f_1081_142" x="19.9633" y="24.2494" width="38.0248" height="34.2649" filterUnits="userSpaceOnUse" color-interpolation-filters="sRGB">
<feFlood flood-opacity="0" result="BackgroundImageFix"/>
<feBlend mode="normal" in="SourceGraphic" in2="BackgroundImageFix" result="shape"/>
<feGaussianBlur stdDeviation="1" result="effect1_foregroundBlur_1081_142"/>
</filter>
<filter id="filter1_f_1081_142" x="48.6195" y="43.5011" width="21" height="19" filterUnits="userSpaceOnUse" color-interpolation-filters="sRGB">
<feFlood flood-opacity="0" result="BackgroundImageFix"/>
<feBlend mode="normal" in="SourceGraphic" in2="BackgroundImageFix" result="shape"/>
<feGaussianBlur stdDeviation="1" result="effect1_foregroundBlur_1081_142"/>
</filter>
<filter id="filter2_f_1081_142" x="77.6195" y="28.5011" width="21" height="19" filterUnits="userSpaceOnUse" color-interpolation-filters="sRGB">
<feFlood flood-opacity="0" result="BackgroundImageFix"/>
<feBlend mode="normal" in="SourceGraphic" in2="BackgroundImageFix" result="shape"/>
<feGaussianBlur stdDeviation="1" result="effect1_foregroundBlur_1081_142"/>
</filter>
<filter id="filter3_f_1081_142" x="69.6195" y="53.5011" width="21" height="19" filterUnits="userSpaceOnUse" color-interpolation-filters="sRGB">
<feFlood flood-opacity="0" result="BackgroundImageFix"/>
<feBlend mode="normal" in="SourceGraphic" in2="BackgroundImageFix" result="shape"/>
<feGaussianBlur stdDeviation="1" result="effect1_foregroundBlur_1081_142"/>
</filter>
<filter id="filter4_f_1081_142" x="23.6195" y="72.5011" width="21" height="19" filterUnits="userSpaceOnUse" color-interpolation-filters="sRGB">
<feFlood flood-opacity="0" result="BackgroundImageFix"/>
<feBlend mode="normal" in="SourceGraphic" in2="BackgroundImageFix" result="shape"/>
<feGaussianBlur stdDeviation="1" result="effect1_foregroundBlur_1081_142"/>
</filter>
<filter id="filter5_f_1081_142" x="52.6195" y="78.5011" width="21" height="19" filterUnits="userSpaceOnUse" color-interpolation-filters="sRGB">
<feFlood flood-opacity="0" result="BackgroundImageFix"/>
<feBlend mode="normal" in="SourceGraphic" in2="BackgroundImageFix" result="shape"/>
<feGaussianBlur stdDeviation="1" result="effect1_foregroundBlur_1081_142"/>
</filter>
<filter id="filter6_f_1081_142" x="6.61951" y="22.5011" width="21" height="19" filterUnits="userSpaceOnUse" color-interpolation-filters="sRGB">
<feFlood flood-opacity="0" result="BackgroundImageFix"/>
<feBlend mode="normal" in="SourceGraphic" in2="BackgroundImageFix" result="shape"/>
<feGaussianBlur stdDeviation="1" result="effect1_foregroundBlur_1081_142"/>
</filter>
<filter id="filter7_f_1081_142" x="0.619507" y="55.5011" width="21" height="19" filterUnits="userSpaceOnUse" color-interpolation-filters="sRGB">
<feFlood flood-opacity="0" result="BackgroundImageFix"/>
<feBlend mode="normal" in="SourceGraphic" in2="BackgroundImageFix" result="shape"/>
<feGaussianBlur stdDeviation="1" result="effect1_foregroundBlur_1081_142"/>
</filter>
<filter id="filter8_f_1081_142" x="18.6195" y="-6.4989" width="21" height="19" filterUnits="userSpaceOnUse" color-interpolation-filters="sRGB">
<feFlood flood-opacity="0" result="BackgroundImageFix"/>
<feBlend mode="normal" in="SourceGraphic" in2="BackgroundImageFix" result="shape"/>
<feGaussianBlur stdDeviation="1" result="effect1_foregroundBlur_1081_142"/>
</filter>
<filter id="filter9_f_1081_142" x="58.6195" y="8.5011" width="21" height="19" filterUnits="userSpaceOnUse" color-interpolation-filters="sRGB">
<feFlood flood-opacity="0" result="BackgroundImageFix"/>
<feBlend mode="normal" in="SourceGraphic" in2="BackgroundImageFix" result="shape"/>
<feGaussianBlur stdDeviation="1" result="effect1_foregroundBlur_1081_142"/>
</filter>
<filter id="filter11_f_1081_142" x="-8.10144" y="76.6937" width="21" height="19" filterUnits="userSpaceOnUse" color-interpolation-filters="sRGB">
<feFlood flood-opacity="0" result="BackgroundImageFix"/>
<feBlend mode="normal" in="SourceGraphic" in2="BackgroundImageFix" result="shape"/>
<feGaussianBlur stdDeviation="1" result="effect1_foregroundBlur_1081_142"/>
</filter>
<filter id="filter12_f_1081_142" x="39.9567" y="-7.19019" width="63.0076" height="103.039" filterUnits="userSpaceOnUse" color-interpolation-filters="sRGB">
<feFlood flood-opacity="0" result="BackgroundImageFix"/>
<feBlend mode="normal" in="SourceGraphic" in2="BackgroundImageFix" result="shape"/>
<feGaussianBlur stdDeviation="3" result="effect1_foregroundBlur_1081_142"/>
</filter>
</defs>
</svg>
