<svg width="1728" height="1105" viewBox="0 0 1728 1105" fill="none" xmlns="http://www.w3.org/2000/svg">
<circle cx="1390.52" cy="453.084" r="7.41901" fill="#2F1191"/>
<circle cx="410.317" cy="260.33" r="7.41901" transform="rotate(-60 410.317 260.33)" fill="#2F1191"/>
<circle cx="1343.06" cy="724.13" r="7.41901" transform="rotate(-60 1343.06 724.13)" fill="#2F1191"/>
<circle cx="470.364" cy="321.83" r="7.41901" transform="rotate(-60 470.364 321.83)" fill="#2F1191"/>
<circle cx="1550.28" cy="513.922" r="7.41901" fill="#2F1191"/>
<circle cx="542.881" cy="152.398" r="7.41901" transform="rotate(-60 542.881 152.398)" fill="#2F1191"/>
<circle cx="115.481" cy="1066.94" r="7.41901" transform="rotate(-60 115.481 1066.94)" fill="#2F1191"/>
<circle cx="1475.62" cy="616.198" r="7.41901" transform="rotate(-60 1475.62 616.198)" fill="#2F1191"/>
<circle cx="602.927" cy="213.898" r="7.41901" transform="rotate(-60 602.927 213.898)" fill="#2F1191"/>
<circle cx="1576.4" cy="276.047" r="7.41901" fill="#2F1191"/>
<circle cx="349.935" cy="10.8382" r="7.41901" transform="rotate(-60 349.935 10.8382)" fill="#2F1191"/>
<circle cx="797.604" cy="431.638" r="7.41901" transform="rotate(-60 797.604 431.638)" fill="#2F1191"/>
<circle cx="1282.68" cy="474.638" r="7.41901" transform="rotate(-60 1282.68 474.638)" fill="#2F1191"/>
<circle cx="409.982" cy="72.3382" r="7.41901" transform="rotate(-60 409.982 72.3382)" fill="#2F1191"/>
<circle cx="1361.95" cy="180.942" r="7.41901" fill="#2F1191"/>
<circle cx="160.346" cy="149.006" r="7.41901" transform="rotate(-60 160.346 149.006)" fill="#2F1191"/>
<circle cx="719.583" cy="186.377" r="7.41901" transform="rotate(-60 719.583 186.377)" fill="#2F1191"/>
<circle cx="1591.94" cy="472.734" r="7.41901" transform="rotate(-60 1591.94 472.734)" fill="#2F1191"/>
<circle cx="220.394" cy="210.506" r="7.41901" transform="rotate(-60 220.394 210.506)" fill="#2F1191"/>
<circle cx="1469.5" cy="374.084" r="7.41901" fill="white"/>
<circle cx="381.391" cy="152.43" r="7.41901" transform="rotate(-60 381.391 152.43)" fill="#2F1191"/>
<circle cx="1314.13" cy="616.23" r="7.41901" transform="rotate(-60 1314.13 616.23)" fill="#2F1191"/>
<circle cx="441.439" cy="213.93" r="7.41901" transform="rotate(-60 441.439 213.93)" fill="white"/>
<circle cx="1662.35" cy="482.084" r="7.41901" fill="#2F1191"/>
<circle cx="571.344" cy="39.4224" r="7.41901" transform="rotate(-60 571.344 39.4224)" fill="#2F1191"/>
<circle cx="143.944" cy="953.964" r="7.41901" transform="rotate(-60 143.944 953.964)" fill="#2F1191"/>
<circle cx="1504.08" cy="503.222" r="7.41901" transform="rotate(-60 1504.08 503.222)" fill="#2F1191"/>
<circle cx="631.391" cy="140.922" r="7.41901" transform="rotate(-60 631.391 140.922)" fill="#2F1191"/>
<circle cx="660.009" cy="108.826" r="7.41901" fill="#2F1191"/>
<circle cx="152.673" cy="794.304" r="7.41901" transform="rotate(-45 152.673 794.304)" fill="#2F1191"/>
<circle cx="610.087" cy="961.385" r="7.41901" transform="rotate(-45 610.087 961.385)" fill="#2F1191"/>
<circle cx="1178.52" cy="1044.57" r="7.41901" transform="rotate(-60 1178.52 1044.57)" fill="#2F1191"/>
<circle cx="1110.22" cy="313.246" r="7.41901" fill="#2F1191"/>
<circle cx="767.565" cy="301.968" r="7.41901" fill="#2F1191"/>
<circle cx="365.3" cy="854.822" r="7.41901" transform="rotate(-45 365.3 854.822)" fill="#2F1191"/>
<circle cx="740.209" cy="1054.43" r="7.41901" transform="rotate(-45 740.209 1054.43)" fill="white"/>
<circle cx="1399.56" cy="1048" r="7.41901" transform="rotate(-60 1399.56 1048)" fill="#2F1191"/>
<circle cx="28.0149" cy="785.769" r="7.41901" transform="rotate(-60 28.0149 785.769)" fill="#2F1191"/>
<circle cx="1303.07" cy="421.246" r="7.41901" fill="#2F1191"/>
<circle cx="339.015" cy="320.151" r="7.41901" transform="rotate(-60 339.015 320.151)" fill="#2F1191"/>
<circle cx="786.684" cy="740.951" r="7.41901" transform="rotate(-60 786.684 740.951)" fill="#2F1191"/>
<circle cx="1271.76" cy="783.951" r="7.41901" transform="rotate(-60 1271.76 783.951)" fill="#2F1191"/>
<circle cx="399.062" cy="381.651" r="7.41901" transform="rotate(-60 399.062 381.651)" fill="#2F1191"/>
<circle cx="960.409" cy="409.968" r="7.41901" fill="#2F1191"/>
<circle cx="157.921" cy="611.261" r="7.41901" transform="rotate(-60 157.921 611.261)" fill="white"/>
<circle cx="605.59" cy="1035.49" r="7.41901" transform="rotate(-60 605.59 1035.49)" fill="#2F1191"/>
<circle cx="578.028" cy="794.828" r="7.41901" transform="rotate(-45 578.028 794.828)" fill="#2F1191"/>
<circle cx="1090.66" cy="1075.06" r="7.41901" transform="rotate(-60 1090.66 1075.06)" fill="#2F1191"/>
<circle cx="1589.51" cy="934.99" r="7.41901" transform="rotate(-60 1589.51 934.99)" fill="#2F1191"/>
<circle cx="217.968" cy="672.761" r="7.41901" transform="rotate(-60 217.968 672.761)" fill="#2F1191"/>
<circle cx="1031.24" cy="392.246" r="7.41901" fill="#2F1191"/>
<circle cx="688.584" cy="380.968" r="7.41901" fill="#2F1191"/>
<circle cx="-3.10666" cy="832.169" r="7.41901" transform="rotate(-60 -3.10666 832.169)" fill="#2F1191"/>
<circle cx="929.633" cy="1096.75" r="7.41901" transform="rotate(-60 929.633 1096.75)" fill="#2F1191"/>
<circle cx="56.9402" cy="893.669" r="7.41901" transform="rotate(-60 56.9402 893.669)" fill="#2F1191"/>
<circle cx="1190.99" cy="453.084" r="7.41901" fill="#2F1191"/>
<circle cx="848.339" cy="441.806" r="7.41901" fill="#2F1191"/>
<circle cx="129.458" cy="724.236" r="7.41901" transform="rotate(-60 129.458 724.236)" fill="#2F1191"/>
<circle cx="522.182" cy="893.28" r="7.41901" transform="rotate(-45 522.182 893.28)" fill="#2F1191"/>
<circle cx="1561.05" cy="1047.97" r="7.41901" transform="rotate(-60 1561.05 1047.97)" fill="#2F1191"/>
<circle cx="189.505" cy="785.736" r="7.41901" transform="rotate(-60 189.505 785.736)" fill="#2F1191"/>
<circle cx="1217.12" cy="215.209" r="7.41901" fill="#2F1191"/>
<circle cx="117.607" cy="291.567" r="7.41901" transform="rotate(-60 117.607 291.567)" fill="#2F1191"/>
<circle cx="565.275" cy="712.367" r="7.41901" transform="rotate(-60 565.275 712.367)" fill="#2F1191"/>
<circle cx="1050.35" cy="755.367" r="7.41901" transform="rotate(-60 1050.35 755.367)" fill="#2F1191"/>
<circle cx="1549.2" cy="615.296" r="7.41901" transform="rotate(-60 1549.2 615.296)" fill="#2F1191"/>
<circle cx="177.655" cy="353.067" r="7.41901" transform="rotate(-60 177.655 353.067)" fill="#2F1191"/>
<circle cx="874.46" cy="203.931" r="7.41901" fill="#2F1191"/>
<circle cx="384.18" cy="1006.9" r="7.41901" transform="rotate(-60 384.18 1006.9)" fill="#2F1191"/>
<circle cx="371.562" cy="709.913" r="7.41901" transform="rotate(-45 371.562 709.913)" fill="#2F1191"/>
<circle cx="869.252" cy="1046.48" r="7.41901" transform="rotate(-60 869.252 1046.48)" fill="#2F1191"/>
<circle cx="829.863" cy="873.686" r="7.41901" transform="rotate(-45 829.863 873.686)" fill="#2F1191"/>
<circle cx="1368.11" cy="906.405" r="7.41901" transform="rotate(-60 1368.11 906.405)" fill="#2F1191"/>
<circle cx="-3.44064" cy="644.177" r="7.41901" transform="rotate(-60 -3.44064 644.177)" fill="#2F1191"/>
<circle cx="1002.67" cy="120.104" r="7.41901" fill="#2F1191"/>
</svg>
