<svg width="176" height="186" viewBox="0 0 176 186" fill="none" xmlns="http://www.w3.org/2000/svg">
<path d="M61.7011 10.3952L76.7011 36.8952C24.301 10.0952 4.20113 48.0619 0.701172 70.3952L26.7011 80.8952C-16.4989 127.695 14.3678 152.395 35.2011 158.895L46.2011 137.895C63.0011 198.295 100.201 188.395 116.701 175.895L109.701 153.895C176.901 162.295 179.701 123.395 172.701 102.895L149.701 108.895C193.301 65.6952 165.201 35.5619 145.701 25.8952L130.201 48.3952C117.401 -13.6048 79.2011 -2.77148 61.7011 10.3952Z" fill="#250C71"/>
<path d="M41.5555 63.8505L63.5555 70.3505C23.5555 75.5505 32.2222 103.517 41.5555 116.851L55.5555 105.851C49.1555 144.651 75.2222 149.017 89.0555 146.351V129.351C114.656 151.351 131.389 130.184 136.556 116.851L121.556 111.851C151.556 98.2505 144.056 74.1838 136.556 63.8505L121.556 74.3505C127.556 39.1505 102.389 37.0172 89.0555 40.3505L92.0555 54.3505C63.6555 32.3505 46.5555 51.5172 41.5555 63.8505Z" fill="#1B4CD9"/>
<path d="M97.7011 79.8866C93.7011 59.0866 79.3678 60.8866 72.7011 64.3866C71.5011 67.5866 80.5345 73.7199 85.2012 76.3866C85.0345 77.5533 84.0012 79.5866 81.2012 78.3866C62.4012 67.9866 56.3679 84.3866 55.7012 93.8866L70.7012 87.3866C71.8678 87.8866 73.9011 89.3866 72.7011 91.3866C48.5276 106.387 75.7011 127.887 74.2011 119.887C72.7011 111.887 76.7011 102.387 78.2011 104.887C79.8011 128.087 96.5344 124.553 104.701 119.887L93.7011 110.387L95.2011 107.387C96.0344 109.053 99.8011 111.987 108.201 110.387C121.001 106.787 121.534 96.2199 120.201 91.3866L108.201 97.3866C106.368 97.8866 103.101 98.1866 104.701 95.3866C122.201 79.8866 113.034 67.5533 103.701 64.3866L102.701 79.8866C101.534 80.7199 98.9011 81.8866 97.7011 79.8866Z" fill="#1ECCFF"/>
<circle cx="87.7012" cy="93.2272" r="10" fill="white"/>
<circle cx="151.701" cy="61.2272" r="6" fill="#6281DB"/>
<circle cx="126.201" cy="74.7272" r="3.5" fill="#C658DD"/>
<circle cx="94.7012" cy="14.2272" r="6" fill="#2F5BE3"/>
<ellipse cx="91.7012" cy="46.7272" rx="4" ry="3.5" fill="#C658DD"/>
<circle cx="149.701" cy="139.227" r="6" fill="#2F5BE3"/>
<ellipse cx="124.701" cy="121.727" rx="4" ry="3.5" fill="#C658DD"/>
<circle cx="83.7012" cy="162.227" r="6" fill="#6281DB"/>
<circle cx="85.2012" cy="135.727" r="3.5" fill="#C658DD"/>
<circle cx="25.7012" cy="122.227" r="6" fill="#2F5BE3"/>
<circle cx="50.2012" cy="111.727" r="3.5" fill="#C658DD"/>
<circle cx="25.7012" cy="54.2272" r="6" fill="#6281DB"/>
<circle cx="50.2012" cy="70.7272" r="3.5" fill="#C658DD"/>
<circle cx="67.2012" cy="102.727" r="3.5" fill="white"/>
</svg>
